<?xml version="1.0" standalone="no"?>
<!DOCTYPE svg PUBLIC "-//W3C//DTD SVG 20010904//EN"
 "http://www.w3.org/TR/2001/REC-SVG-20010904/DTD/svg10.dtd">
<svg version="1.0" xmlns="http://www.w3.org/2000/svg"
 width="512.000000pt" height="512.000000pt" viewBox="0 0 512.000000 512.000000"
 preserveAspectRatio="xMidYMid meet">

<g transform="translate(0.000000,512.000000) scale(0.100000,-0.100000)"
fill="#10B981" stroke="none">
<path d="M2345 5030 c-231 -47 -406 -224 -452 -459 -20 -101 -10 -213 28 -306
27 -66 1970 -3438 2000 -3470 10 -11 198 -144 417 -295 l400 -275 -2057 -3
c-1840 -2 -2064 -1 -2128 13 -161 36 -292 171 -323 334 -13 71 -13 207 1 273
37 174 181 310 359 338 39 6 316 10 695 10 530 0 640 2 689 15 189 49 334 185
399 373 27 80 30 98 30 222 0 95 -5 154 -16 199 -41 153 -150 293 -284 364
-125 65 -138 67 -715 67 -505 0 -519 -1 -538 -20 -29 -29 -26 -74 6 -99 26
-21 36 -21 534 -21 481 0 511 -1 573 -20 89 -28 177 -95 228 -172 60 -94 71
-145 67 -311 -3 -136 -4 -145 -35 -210 -42 -89 -121 -168 -210 -210 l-68 -32
-695 -5 c-772 -7 -730 -3 -871 -76 -120 -63 -229 -193 -270 -323 -30 -95 -38
-292 -15 -395 25 -112 77 -208 155 -286 77 -76 160 -123 267 -150 76 -20 119
-20 2276 -20 l2199 0 24 25 c14 13 25 30 25 37 0 7 -31 285 -69 618 l-69 605
-980 1698 c-540 933 -995 1717 -1011 1741 -116 168 -363 266 -566 226z m210
-145 c143 -38 213 -104 338 -322 48 -84 87 -156 87 -160 0 -6 -324 -197 -680
-400 l-57 -32 -90 157 c-104 182 -119 217 -128 299 -33 289 247 531 530 458z
m1354 -2082 c452 -783 821 -1426 821 -1430 0 -5 -53 -38 -118 -74 -64 -37
-230 -132 -369 -212 l-251 -145 -837 1450 c-585 1013 -834 1453 -826 1461 5 5
171 103 368 217 l358 207 17 -26 c9 -14 386 -666 837 -1448z m871 -1588 c0 -8
23 -213 50 -457 28 -243 49 -445 48 -449 -2 -5 -177 112 -390 259 -213 147
-383 271 -379 275 11 11 654 385 664 386 4 1 7 -6 7 -14z"/>
</g>
</svg>
